<svg height="1662" width="720" xmlns="http://www.w3.org/2000/svg">
<rect height="1662" fill="#555" width="720"></rect>
<text fill="#7f7" font-family="Courier New" font-size="12" xml:space="preserve">
<tspan x="10" y="26">5 megabytes installed</tspan>
<tspan x="10" y="42"></tspan>
<tspan x="10" y="58">node_modules</tspan>
<tspan x="10" y="74">└─┬ gulp-mocha@4.3.0 </tspan>
<tspan x="10" y="90">  ├── dargs@5.1.0 </tspan>
<tspan x="10" y="106">  ├─┬ execa@0.6.3 </tspan>
<tspan x="10" y="122">  │ ├─┬ cross-spawn@5.1.0 </tspan>
<tspan x="10" y="138">  │ │ ├─┬ lru-cache@4.0.2 </tspan>
<tspan x="10" y="154">  │ │ │ ├── pseudomap@1.0.2 </tspan>
<tspan x="10" y="170">  │ │ │ └── yallist@2.1.2 </tspan>
<tspan x="10" y="186">  │ │ ├─┬ shebang-command@1.2.0 </tspan>
<tspan x="10" y="202">  │ │ │ └── shebang-regex@1.0.0 </tspan>
<tspan x="10" y="218">  │ │ └─┬ which@1.2.14 </tspan>
<tspan x="10" y="234">  │ │   └── isexe@2.0.0 </tspan>
<tspan x="10" y="250">  │ ├── get-stream@3.0.0 </tspan>
<tspan x="10" y="266">  │ ├── is-stream@1.1.0 </tspan>
<tspan x="10" y="282">  │ ├── p-finally@1.0.0 </tspan>
<tspan x="10" y="298">  │ ├── signal-exit@3.0.2 </tspan>
<tspan x="10" y="314">  │ └── strip-eof@1.0.0 </tspan>
<tspan x="10" y="330">  ├─┬ gulp-util@3.0.8 </tspan>
<tspan x="10" y="346">  │ ├── array-differ@1.0.0 </tspan>
<tspan x="10" y="362">  │ ├── array-uniq@1.0.3 </tspan>
<tspan x="10" y="378">  │ ├── beeper@1.1.1 </tspan>
<tspan x="10" y="394">  │ ├─┬ chalk@1.1.3 </tspan>
<tspan x="10" y="410">  │ │ ├── ansi-styles@2.2.1 </tspan>
<tspan x="10" y="426">  │ │ ├─┬ has-ansi@2.0.0 </tspan>
<tspan x="10" y="442">  │ │ │ └── ansi-regex@2.1.1 </tspan>
<tspan x="10" y="458">  │ │ ├── strip-ansi@3.0.1 </tspan>
<tspan x="10" y="474">  │ │ └── supports-color@2.0.0 </tspan>
<tspan x="10" y="490">  │ ├── dateformat@2.0.0 </tspan>
<tspan x="10" y="506">  │ ├─┬ fancy-log@1.3.0 </tspan>
<tspan x="10" y="522">  │ │ └── time-stamp@1.0.1 </tspan>
<tspan x="10" y="538">  │ ├─┬ gulplog@1.0.0 </tspan>
<tspan x="10" y="554">  │ │ └── glogg@1.0.0 </tspan>
<tspan x="10" y="570">  │ ├─┬ has-gulplog@0.1.0 </tspan>
<tspan x="10" y="586">  │ │ └── sparkles@1.0.0 </tspan>
<tspan x="10" y="602">  │ ├── lodash._reescape@3.0.0 </tspan>
<tspan x="10" y="618">  │ ├── lodash._reevaluate@3.0.0 </tspan>
<tspan x="10" y="634">  │ ├── lodash._reinterpolate@3.0.0 </tspan>
<tspan x="10" y="650">  │ ├─┬ lodash.template@3.6.2 </tspan>
<tspan x="10" y="666">  │ │ ├── lodash._basecopy@3.0.1 </tspan>
<tspan x="10" y="682">  │ │ ├── lodash._basetostring@3.0.1 </tspan>
<tspan x="10" y="698">  │ │ ├── lodash._basevalues@3.0.0 </tspan>
<tspan x="10" y="714">  │ │ ├── lodash._isiterateecall@3.0.9 </tspan>
<tspan x="10" y="730">  │ │ ├─┬ lodash.escape@3.2.0 </tspan>
<tspan x="10" y="746">  │ │ │ └── lodash._root@3.0.1 </tspan>
<tspan x="10" y="762">  │ │ ├─┬ lodash.keys@3.1.2 </tspan>
<tspan x="10" y="778">  │ │ │ ├── lodash._getnative@3.9.1 </tspan>
<tspan x="10" y="794">  │ │ │ ├── lodash.isarguments@3.1.0 </tspan>
<tspan x="10" y="810">  │ │ │ └── lodash.isarray@3.0.4 </tspan>
<tspan x="10" y="826">  │ │ ├── lodash.restparam@3.6.1 </tspan>
<tspan x="10" y="842">  │ │ └── lodash.templatesettings@3.1.1 </tspan>
<tspan x="10" y="858">  │ ├── minimist@1.2.0 </tspan>
<tspan x="10" y="874">  │ ├─┬ multipipe@0.1.2 </tspan>
<tspan x="10" y="890">  │ │ └─┬ duplexer2@0.0.2 </tspan>
<tspan x="10" y="906">  │ │   └─┬ readable-stream@1.1.14 </tspan>
<tspan x="10" y="922">  │ │     ├── isarray@0.0.1 </tspan>
<tspan x="10" y="938">  │ │     └── string_decoder@0.10.31 </tspan>
<tspan x="10" y="954">  │ ├── object-assign@3.0.0 </tspan>
<tspan x="10" y="970">  │ ├── replace-ext@0.0.1 </tspan>
<tspan x="10" y="986">  │ └─┬ vinyl@0.5.3 </tspan>
<tspan x="10" y="1002">  │   ├── clone@1.0.2 </tspan>
<tspan x="10" y="1018">  │   └── clone-stats@0.0.1 </tspan>
<tspan x="10" y="1034">  ├─┬ mocha@3.2.0 </tspan>
<tspan x="10" y="1050">  │ ├── browser-stdout@1.3.0 </tspan>
<tspan x="10" y="1066">  │ ├─┬ commander@2.9.0 </tspan>
<tspan x="10" y="1082">  │ │ └── graceful-readlink@1.0.1 </tspan>
<tspan x="10" y="1098">  │ ├─┬ debug@2.2.0 </tspan>
<tspan x="10" y="1114">  │ │ └── ms@0.7.1 </tspan>
<tspan x="10" y="1130">  │ ├── diff@1.4.0 </tspan>
<tspan x="10" y="1146">  │ ├── escape-string-regexp@1.0.5 </tspan>
<tspan x="10" y="1162">  │ ├─┬ glob@7.0.5 </tspan>
<tspan x="10" y="1178">  │ │ ├── fs.realpath@1.0.0 </tspan>
<tspan x="10" y="1194">  │ │ ├─┬ inflight@1.0.6 </tspan>
<tspan x="10" y="1210">  │ │ │ └── wrappy@1.0.2 </tspan>
<tspan x="10" y="1226">  │ │ ├── inherits@2.0.3 </tspan>
<tspan x="10" y="1242">  │ │ ├─┬ minimatch@3.0.3 </tspan>
<tspan x="10" y="1258">  │ │ │ └─┬ brace-expansion@1.1.7 </tspan>
<tspan x="10" y="1274">  │ │ │   ├── balanced-match@0.4.2 </tspan>
<tspan x="10" y="1290">  │ │ │   └── concat-map@0.0.1 </tspan>
<tspan x="10" y="1306">  │ │ ├── once@1.4.0 </tspan>
<tspan x="10" y="1322">  │ │ └── path-is-absolute@1.0.1 </tspan>
<tspan x="10" y="1338">  │ ├── growl@1.9.2 </tspan>
<tspan x="10" y="1354">  │ ├── json3@3.3.2 </tspan>
<tspan x="10" y="1370">  │ ├─┬ lodash.create@3.1.1 </tspan>
<tspan x="10" y="1386">  │ │ ├── lodash._baseassign@3.2.0 </tspan>
<tspan x="10" y="1402">  │ │ └── lodash._basecreate@3.0.3 </tspan>
<tspan x="10" y="1418">  │ ├─┬ mkdirp@0.5.1 </tspan>
<tspan x="10" y="1434">  │ │ └── minimist@0.0.8 </tspan>
<tspan x="10" y="1450">  │ └─┬ supports-color@3.1.2 </tspan>
<tspan x="10" y="1466">  │   └── has-flag@1.0.0 </tspan>
<tspan x="10" y="1482">  ├─┬ npm-run-path@2.0.2 </tspan>
<tspan x="10" y="1498">  │ └── path-key@2.0.1 </tspan>
<tspan x="10" y="1514">  └─┬ through2@2.0.3 </tspan>
<tspan x="10" y="1530">    ├─┬ readable-stream@2.2.9 </tspan>
<tspan x="10" y="1546">    │ ├── buffer-shims@1.0.0 </tspan>
<tspan x="10" y="1562">    │ ├── core-util-is@1.0.2 </tspan>
<tspan x="10" y="1578">    │ ├── isarray@1.0.0 </tspan>
<tspan x="10" y="1594">    │ ├── process-nextick-args@1.0.7 </tspan>
<tspan x="10" y="1610">    │ ├── string_decoder@1.0.0 </tspan>
<tspan x="10" y="1626">    │ └── util-deprecate@1.0.2 </tspan>
<tspan x="10" y="1642">    └── xtend@4.0.1</tspan>
</text>
</svg>
